<svg version="1.1" id="Layer_1" xmlns="http://www.w3.org/2000/svg" xmlns:xlink="http://www.w3.org/1999/xlink" x="0px" y="0px"
	 width="100%" viewBox="0 0 172 70" enable-background="new 0 0 172 70" xml:space="preserve">
<path fill="#FEFEFE" opacity="1.000000" stroke="none" 
	d="
M105.000000,71.000000 
	C70.000008,71.000000 35.500008,71.000000 1.000009,71.000000 
	C1.000006,47.666672 1.000006,24.333347 1.000003,1.000015 
	C58.333317,1.000010 115.666634,1.000010 172.999969,1.000005 
	C172.999969,24.333319 172.999969,47.666637 172.999985,70.999977 
	C150.500000,71.000000 128.000000,71.000000 105.000000,71.000000 
M114.210266,35.363274 
	C114.817497,37.569916 115.424721,39.776558 116.194328,42.728062 
	C115.803192,43.144184 115.380280,43.535149 115.027107,43.981323 
	C114.109520,45.140530 113.222580,46.323997 112.323410,47.497784 
	C113.606033,48.370037 114.813164,49.808636 116.187630,49.991837 
	C118.729660,50.330662 121.369675,49.934345 124.574089,49.836132 
	C125.067245,49.413044 126.058197,48.816105 125.980110,48.592518 
	C124.399109,44.065453 127.621460,45.139042 130.117599,45.816761 
	C134.506271,47.477760 138.833908,49.357361 143.335388,50.614334 
	C144.229950,50.864124 146.899338,48.654530 146.836121,47.706734 
	C146.646698,44.867229 145.802094,41.964581 144.662857,39.324028 
	C143.414856,36.431408 141.553177,33.803555 140.004242,30.213324 
	C140.248856,27.399691 140.493469,24.586058 140.752533,21.827595 
	C140.752533,21.827595 140.732010,21.788214 141.502441,21.854517 
	C141.966629,20.806690 142.430817,19.758863 143.535721,18.499386 
	C144.204971,17.148565 144.874222,15.797743 145.543488,14.446923 
	C144.003250,14.488912 142.193344,14.032692 140.984558,14.687003 
	C139.062637,15.727343 137.541733,17.508490 135.078552,19.034866 
	C133.036636,19.381525 130.994705,19.728186 128.624969,19.577337 
	C128.077835,19.386915 127.530708,19.196491 126.666077,18.405809 
	C124.462090,17.233110 122.258102,16.060413 119.622200,14.310090 
	C117.696907,13.513165 115.766853,12.094638 113.847778,12.109343 
	C112.212982,12.121870 109.120110,13.983635 109.214966,14.681834 
	C109.650444,17.886980 110.978546,20.970848 111.753525,24.600100 
	C112.021927,25.384193 112.290329,26.168289 112.532646,27.735764 
	C113.280373,30.094040 114.028091,32.452316 114.210266,35.363274 
M38.483135,17.159105 
	C36.238823,17.159105 33.994511,17.159105 31.631376,17.159105 
	C31.631376,27.160233 31.631376,36.382774 31.631376,45.916210 
	C36.228390,45.916210 40.636806,46.528320 44.761108,45.709450 
	C47.702908,45.125362 51.068184,43.216530 52.828754,40.846973 
	C56.718525,35.611729 56.991642,29.426538 54.010941,23.558283 
	C50.989452,17.609730 45.223614,17.134176 38.483135,17.159105 
M98.322136,34.991127 
	C99.223000,36.190281 101.015541,37.591198 100.801308,38.538033 
	C100.527222,39.749306 98.650887,41.397266 97.437836,41.420223 
	C95.315178,41.460400 93.136841,40.506416 91.047356,39.780376 
	C89.118248,39.110065 87.275154,38.192261 84.817192,37.135365 
	C85.797180,45.444656 93.799026,48.948879 101.611847,45.666615 
	C105.189072,44.163773 106.996872,41.487415 107.045120,37.526543 
	C107.093620,33.545204 104.822990,31.380026 101.466507,30.155708 
	C99.140495,29.307261 96.529030,29.149923 94.321678,28.101501 
	C92.972649,27.460751 92.147339,25.717348 91.086823,24.469170 
	C92.512520,23.553204 93.887016,22.014446 95.377945,21.891850 
	C96.951073,21.762497 98.638596,22.975836 100.270096,23.617954 
	C102.079178,24.329962 103.881416,25.059355 106.330849,26.038769 
	C104.867355,17.313816 95.281464,13.750122 88.950386,18.659857 
	C86.927841,20.228338 85.249832,23.664463 85.371132,26.150562 
	C85.479843,28.378538 87.899872,31.022371 89.997978,32.474686 
	C92.060432,33.902325 95.000839,34.061626 98.322136,34.991127 
M82.038261,43.828983 
	C79.239502,35.866230 76.554245,27.859867 73.528610,19.984270 
	C73.032784,18.693647 71.067589,17.255194 69.728172,17.200909 
	C68.383095,17.146393 66.209976,18.426882 65.711334,19.654902 
	C62.246155,28.188564 59.122585,36.860943 55.709751,45.968384 
	C59.206345,45.779438 62.650719,47.427277 63.296669,42.702419 
	C63.812675,38.928093 66.426216,38.847328 69.458687,38.814960 
	C72.717209,38.780182 75.160622,39.031273 75.940117,42.999107 
	C76.756660,47.155548 79.314667,46.930779 82.038261,43.828983 
z"/>
<path fill="#62866F" opacity="1.000000" stroke="none" 
	d="
M38.943241,17.154675 
	C45.223614,17.134176 50.989452,17.609730 54.010941,23.558283 
	C56.991642,29.426538 56.718525,35.611729 52.828754,40.846973 
	C51.068184,43.216530 47.702908,45.125362 44.761108,45.709450 
	C40.636806,46.528320 36.228390,45.916210 31.631376,45.916210 
	C31.631376,36.382774 31.631376,27.160233 31.631376,17.159105 
	C33.994511,17.159105 36.238823,17.159105 38.943241,17.154675 
M45.375057,40.326897 
	C50.029072,36.848579 51.397335,31.820187 49.042034,26.850660 
	C47.049873,22.647316 43.362320,21.359293 37.377220,22.741627 
	C37.377220,28.797884 37.377220,34.833672 37.377220,41.206516 
	C40.047894,41.022705 42.341583,40.864841 45.375057,40.326897 
z"/>
<path fill="#5E836C" opacity="1.000000" stroke="none" 
	d="
M97.939056,34.884308 
	C95.000839,34.061626 92.060432,33.902325 89.997978,32.474686 
	C87.899872,31.022371 85.479843,28.378538 85.371132,26.150562 
	C85.249832,23.664463 86.927841,20.228338 88.950386,18.659857 
	C95.281464,13.750122 104.867355,17.313816 106.330849,26.038769 
	C103.881416,25.059355 102.079178,24.329962 100.270096,23.617954 
	C98.638596,22.975836 96.951073,21.762497 95.377945,21.891850 
	C93.887016,22.014446 92.512520,23.553204 91.086823,24.469170 
	C92.147339,25.717348 92.972649,27.460751 94.321678,28.101501 
	C96.529030,29.149923 99.140495,29.307261 101.466507,30.155708 
	C104.822990,31.380026 107.093620,33.545204 107.045120,37.526543 
	C106.996872,41.487415 105.189072,44.163773 101.611847,45.666615 
	C93.799026,48.948879 85.797180,45.444656 84.817192,37.135365 
	C87.275154,38.192261 89.118248,39.110065 91.047356,39.780376 
	C93.136841,40.506416 95.315178,41.460400 97.437836,41.420223 
	C98.650887,41.397266 100.527222,39.749306 100.801308,38.538033 
	C101.015541,37.591198 99.223000,36.190281 97.939056,34.884308 
z"/>
<path fill="#60846D" opacity="1.000000" stroke="none" 
	d="
M82.095139,44.250244 
	C79.314667,46.930779 76.756660,47.155548 75.940117,42.999107 
	C75.160622,39.031273 72.717209,38.780182 69.458687,38.814960 
	C66.426216,38.847328 63.812675,38.928093 63.296669,42.702419 
	C62.650719,47.427277 59.206345,45.779438 55.709751,45.968384 
	C59.122585,36.860943 62.246155,28.188564 65.711334,19.654902 
	C66.209976,18.426882 68.383095,17.146393 69.728172,17.200909 
	C71.067589,17.255194 73.032784,18.693647 73.528610,19.984270 
	C76.554245,27.859867 79.239502,35.866230 82.095139,44.250244 
M68.027092,27.802727 
	C67.495201,29.793812 66.963318,31.784895 66.405380,33.873497 
	C68.798683,33.873497 70.704697,33.873497 72.992798,33.873497 
	C71.834473,30.520113 70.817863,27.577005 69.591110,24.025518 
	C68.897217,25.582968 68.560127,26.339563 68.027092,27.802727 
z"/>
<path fill="#DFE0E4" opacity="1.000000" stroke="none" 
	d="
M128.952789,20.074844 
	C130.994705,19.728186 133.036636,19.381525 135.651001,19.298027 
	C137.728333,20.298267 139.233215,21.035347 140.738083,21.772427 
	C140.493469,24.586058 140.248856,27.399691 139.704926,30.864153 
	C138.914886,33.985786 138.424133,36.456589 137.575592,38.948303 
	C136.143280,39.300667 135.068756,39.632122 133.660034,39.965263 
	C132.880264,39.970657 132.434692,39.974369 131.757339,39.968903 
	C131.525558,39.959717 131.062973,39.924641 130.895813,39.628624 
	C129.232849,38.031078 127.744179,36.770016 126.717110,40.005112 
	C126.178116,40.050442 125.962921,40.071007 125.505966,40.003414 
	C124.794243,39.423054 124.324272,38.930847 123.902283,38.066643 
	C123.975967,37.445923 124.001678,37.197197 124.310623,36.728394 
	C125.067131,34.341995 125.540398,32.175674 126.006851,30.004997 
	C126.000038,30.000637 126.004105,30.011028 126.229317,29.909906 
	C126.734245,29.608541 126.918549,29.342255 127.004318,29.004992 
	C127.001205,29.000059 127.013527,29.007788 127.189651,28.916767 
	C127.245148,28.533390 127.124512,28.241035 127.007446,27.602737 
	C127.013474,25.839468 127.015938,24.422140 127.124512,22.786053 
	C127.428375,22.294764 127.687843,22.107944 128.241058,21.997581 
	C128.639023,21.656975 128.804947,21.325624 128.966797,20.764408 
	C128.962723,20.534540 128.952789,20.074846 128.952789,20.074844 
M137.900879,28.230713 
	C138.111206,27.366537 138.321518,26.502363 138.531845,25.638186 
	C137.933533,25.560320 137.335236,25.482454 136.736923,25.404587 
	C136.947449,26.223625 137.157974,27.042664 137.900879,28.230713 
M132.687683,21.288054 
	C132.458984,21.824667 132.230270,22.361280 132.001572,22.897892 
	C132.346710,22.980671 132.691849,23.063448 133.036987,23.146227 
	C133.097733,22.464550 133.158478,21.782873 132.687683,21.288054 
z"/>
<path fill="#C0C1C7" opacity="1.000000" stroke="none" 
	d="
M131.989120,39.978081 
	C132.434692,39.974369 132.880264,39.970657 133.878265,40.239437 
	C135.598282,39.983749 136.765839,39.455574 137.933380,38.927395 
	C138.424133,36.456589 138.914886,33.985786 139.682281,31.287651 
	C141.553177,33.803555 143.414856,36.431408 144.662857,39.324028 
	C145.802094,41.964581 146.646698,44.867229 146.836121,47.706734 
	C146.899338,48.654530 144.229950,50.864124 143.335388,50.614334 
	C138.833908,49.357361 134.506271,47.477760 130.259735,45.307869 
	C130.267746,43.852047 130.133606,42.905121 129.857361,41.674732 
	C128.823792,40.920963 127.932350,40.450657 127.040901,39.980354 
	C127.744179,36.770016 129.232849,38.031078 130.956055,39.811615 
	C131.452026,40.186447 131.720581,40.082264 131.989120,39.978081 
z"/>
<path fill="#B9BABF" opacity="1.000000" stroke="none" 
	d="
M111.986282,24.098244 
	C110.978546,20.970848 109.650444,17.886980 109.214966,14.681834 
	C109.120110,13.983635 112.212982,12.121870 113.847778,12.109343 
	C115.766853,12.094638 117.696907,13.513165 119.820984,15.037878 
	C120.011093,17.507990 120.002426,19.250313 119.647919,21.030289 
	C118.154289,21.510321 117.006500,21.952698 115.157608,22.665293 
	C117.422997,22.963249 118.846497,23.150476 119.992699,23.301231 
	C119.992699,26.143366 119.992699,28.619915 119.698868,30.929478 
	C118.249786,30.190840 117.094536,29.619190 115.953537,29.024597 
	C115.967796,29.001656 115.953796,29.046698 115.985413,28.730247 
	C115.654472,27.950056 115.291916,27.486315 114.963058,27.014347 
	C114.996765,27.006121 114.952385,27.059454 114.954132,26.725286 
	C114.334946,25.331396 113.714012,24.271675 113.093079,23.211952 
	C112.724144,23.507383 112.355209,23.802814 111.986282,24.098244 
z"/>
<path fill="#5D626A" opacity="1.000000" stroke="none" 
	d="
M123.968880,49.844246 
	C121.369675,49.934345 118.729660,50.330662 116.187630,49.991837 
	C114.813164,49.808636 113.606033,48.370037 112.323410,47.497784 
	C113.222580,46.323997 114.109520,45.140530 115.027107,43.981323 
	C115.380280,43.535149 115.803192,43.144184 116.505295,42.309662 
	C117.865974,41.925163 118.915672,41.959068 120.221771,42.072052 
	C120.982407,41.756889 121.486633,41.362648 122.299248,41.126968 
	C123.061386,44.138435 123.515129,46.991341 123.968880,49.844246 
z"/>
<path fill="#CBCCD2" opacity="1.000000" stroke="none" 
	d="
M119.992699,31.096464 
	C119.992699,28.619915 119.992699,26.143366 119.992699,23.301231 
	C118.846497,23.150476 117.422997,22.963249 115.157608,22.665293 
	C117.006500,21.952698 118.154289,21.510321 119.983559,21.033337 
	C121.112396,21.000542 121.559761,21.002350 122.205070,21.259762 
	C123.274567,21.006136 124.146111,20.496910 125.271225,19.879700 
	C126.011063,19.516499 126.497322,19.261280 126.983582,19.006065 
	C127.530708,19.196491 128.077835,19.386915 128.788879,19.826092 
	C128.952789,20.074846 128.962723,20.534540 128.752655,20.875607 
	C128.277145,21.420897 128.099289,21.684286 128.009033,22.006840 
	C127.687843,22.107944 127.428375,22.294764 126.765190,22.823229 
	C125.539444,24.391510 124.779129,25.703856 124.009407,27.008133 
	C124.000000,27.000063 124.016365,27.018778 123.770218,27.200453 
	C124.353943,28.257870 125.183800,29.133612 126.013672,30.009354 
	C125.540398,32.175674 125.067131,34.341995 124.155762,36.439507 
	C122.475998,34.612621 121.234352,32.854542 119.992699,31.096464 
z"/>
<path fill="#424245" opacity="1.000000" stroke="none" 
	d="
M140.745300,21.800011 
	C139.233215,21.035347 137.728333,20.298267 136.037323,19.268738 
	C137.541733,17.508490 139.062637,15.727343 140.984558,14.687003 
	C142.193344,14.032692 144.003250,14.488912 145.543488,14.446922 
	C144.874222,15.797743 144.204971,17.148565 142.849335,18.637218 
	C141.685959,19.779440 141.208984,20.783825 140.732010,21.788212 
	C140.732010,21.788214 140.752533,21.827595 140.745300,21.800011 
z"/>
<path fill="#747476" opacity="1.000000" stroke="none" 
	d="
M121.990860,40.968407 
	C121.486633,41.362648 120.982407,41.756889 120.194199,41.706757 
	C118.198753,39.111786 116.487282,36.961189 114.775818,34.810593 
	C114.028091,32.452316 113.280373,30.094040 112.952286,27.325783 
	C113.898743,26.963684 114.425568,27.011570 114.952385,27.059454 
	C114.952385,27.059454 114.996765,27.006121 114.815582,27.328640 
	C115.074203,28.116339 115.514000,28.581516 115.953796,29.046696 
	C115.953796,29.046698 115.967796,29.001656 115.943130,29.377094 
	C118.274384,32.608418 120.630302,35.464302 122.807266,38.495186 
	C122.415833,39.436260 122.203346,40.202332 121.990860,40.968407 
z"/>
<path fill="#76787B" opacity="1.000000" stroke="none" 
	d="
M122.299248,41.126968 
	C122.203346,40.202332 122.415833,39.436260 123.027298,38.502811 
	C123.426270,38.335434 123.854301,38.438641 123.854301,38.438637 
	C124.324272,38.930847 124.794243,39.423054 125.706833,40.298355 
	C127.432793,41.107033 128.716125,41.532616 129.999466,41.958195 
	C130.133606,42.905121 130.267746,43.852047 130.162430,44.968163 
	C127.621460,45.139042 124.399109,44.065453 125.980110,48.592518 
	C126.058197,48.816105 125.067245,49.413044 124.271484,49.840187 
	C123.515129,46.991341 123.061386,44.138435 122.299248,41.126968 
z"/>
<path fill="#363536" opacity="1.000000" stroke="none" 
	d="
M114.493042,35.086933 
	C116.487282,36.961189 118.198753,39.111786 119.937805,41.627678 
	C118.915672,41.959068 117.865974,41.925163 116.424110,41.937229 
	C115.424721,39.776558 114.817497,37.569916 114.493042,35.086933 
z"/>
<path fill="#C1C3C7" opacity="1.000000" stroke="none" 
	d="
M122.007118,21.004162 
	C121.559761,21.002350 121.112396,21.000542 120.329399,20.995686 
	C120.002426,19.250313 120.011093,17.507990 120.036942,15.326691 
	C122.258102,16.060413 124.462090,17.233110 126.824829,18.705936 
	C126.497322,19.261280 126.011063,19.516499 124.950012,19.906069 
	C123.585846,20.361670 122.796486,20.682915 122.007118,21.004162 
z"/>
<path fill="#E2E3E7" opacity="1.000000" stroke="none" 
	d="
M114.954132,26.725286 
	C114.425568,27.011570 113.898743,26.963684 112.965332,26.934092 
	C112.290329,26.168289 112.021927,25.384193 111.869904,24.349171 
	C112.355209,23.802814 112.724144,23.507383 113.093079,23.211952 
	C113.714012,24.271675 114.334946,25.331396 114.954132,26.725286 
z"/>
<path fill="#DFE0E4" opacity="1.000000" stroke="none" 
	d="
M141.117218,21.821365 
	C141.208984,20.783825 141.685959,19.779440 142.528961,18.743044 
	C142.430817,19.758863 141.966629,20.806690 141.117218,21.821365 
z"/>
<path fill="#F9FDFB" opacity="1.000000" stroke="none" 
	d="
M45.005165,40.516937 
	C42.341583,40.864841 40.047894,41.022705 37.377220,41.206516 
	C37.377220,34.833672 37.377220,28.797884 37.377220,22.741627 
	C43.362320,21.359293 47.049873,22.647316 49.042034,26.850660 
	C51.397335,31.820187 50.029072,36.848579 45.005165,40.516937 
z"/>
<path fill="#EBF6EE" opacity="1.000000" stroke="none" 
	d="
M68.125061,27.449444 
	C68.560127,26.339563 68.897217,25.582968 69.591110,24.025518 
	C70.817863,27.577005 71.834473,30.520113 72.992798,33.873497 
	C70.704697,33.873497 68.798683,33.873497 66.405380,33.873497 
	C66.963318,31.784895 67.495201,29.793812 68.125061,27.449444 
z"/>
<path fill="#E2E3E7" opacity="1.000000" stroke="none" 
	d="
M123.902283,38.066647 
	C123.854301,38.438641 123.426270,38.335434 123.206245,38.327812 
	C120.630302,35.464302 118.274384,32.608418 115.928879,29.400036 
	C117.094536,29.619190 118.249786,30.190840 119.698868,30.929478 
	C121.234352,32.854542 122.475998,34.612621 123.872520,36.659584 
	C124.001678,37.197197 123.975967,37.445923 123.902283,38.066647 
z"/>
<path fill="#D7D9DD" opacity="1.000000" stroke="none" 
	d="
M124.018814,27.016201 
	C124.779129,25.703856 125.539444,24.391510 126.659073,23.041988 
	C127.015938,24.422140 127.013474,25.839468 127.004593,27.867867 
	C127.003281,28.655220 127.008408,28.831505 127.013527,29.007788 
	C127.013527,29.007788 127.001205,29.000059 126.779587,29.106613 
	C126.278908,29.413548 126.094284,29.679502 126.004105,30.011028 
	C126.004105,30.011028 126.000038,30.000637 126.006851,30.004995 
	C125.183800,29.133612 124.353943,28.257870 123.822243,27.332157 
	C124.202232,27.329163 124.284065,27.376139 124.365891,27.423115 
	C124.250198,27.287476 124.134506,27.151838 124.018814,27.016201 
z"/>
<path fill="#FEFEFE" opacity="1.000000" stroke="none" 
	d="
M137.634689,28.046207 
	C137.157974,27.042664 136.947449,26.223625 136.736923,25.404587 
	C137.335236,25.482454 137.933533,25.560320 138.531845,25.638187 
	C138.321518,26.502363 138.111206,27.366537 137.634689,28.046207 
z"/>
<path fill="#CBCCD2" opacity="1.000000" stroke="none" 
	d="
M137.575607,38.948303 
	C136.765839,39.455574 135.598282,39.983749 134.212463,40.237755 
	C135.068756,39.632122 136.143280,39.300667 137.575607,38.948303 
z"/>
<path fill="#E2E3E7" opacity="1.000000" stroke="none" 
	d="
M129.857361,41.674732 
	C128.716125,41.532616 127.432793,41.107033 125.948593,40.386509 
	C125.962921,40.071007 126.178116,40.050442 126.717110,40.005112 
	C127.932350,40.450657 128.823792,40.920963 129.857361,41.674732 
z"/>
<path fill="#FEFEFE" opacity="1.000000" stroke="none" 
	d="
M132.953461,21.194626 
	C133.158478,21.782873 133.097733,22.464550 133.036987,23.146227 
	C132.691849,23.063448 132.346710,22.980671 132.001572,22.897892 
	C132.230270,22.361280 132.458984,21.824667 132.953461,21.194626 
z"/>
<path fill="#D7D9DD" opacity="1.000000" stroke="none" 
	d="
M128.241058,21.997581 
	C128.099289,21.684286 128.277145,21.420897 128.756729,21.105473 
	C128.804947,21.325624 128.639023,21.656975 128.241058,21.997581 
z"/>
<path fill="#CBCCD2" opacity="1.000000" stroke="none" 
	d="
M126.229317,29.909906 
	C126.094284,29.679502 126.278908,29.413548 126.782700,29.111546 
	C126.918549,29.342255 126.734245,29.608541 126.229317,29.909906 
z"/>
<path fill="#CBCCD2" opacity="1.000000" stroke="none" 
	d="
M127.189651,28.916767 
	C127.008408,28.831505 127.003281,28.655220 127.001022,28.213810 
	C127.124512,28.241035 127.245148,28.533390 127.189651,28.916767 
z"/>
<path fill="#CBCCD2" opacity="1.000000" stroke="none" 
	d="
M131.757339,39.968899 
	C131.720581,40.082264 131.452026,40.186447 131.123230,40.107635 
	C131.062973,39.924641 131.525558,39.959717 131.757339,39.968899 
z"/>
<path fill="#E2E3E7" opacity="1.000000" stroke="none" 
	d="
M115.985413,28.730246 
	C115.514000,28.581516 115.074203,28.116339 114.781876,27.336868 
	C115.291916,27.486315 115.654472,27.950056 115.985413,28.730246 
z"/>
<path fill="#D7D9DD" opacity="1.000000" stroke="none" 
	d="
M122.205070,21.259762 
	C122.796486,20.682915 123.585846,20.361670 124.696434,20.014053 
	C124.146111,20.496910 123.274567,21.006136 122.205070,21.259762 
z"/>
<path fill="#DFE0E4" opacity="1.000000" stroke="none" 
	d="
M124.009407,27.008131 
	C124.134506,27.151838 124.250198,27.287476 124.365891,27.423115 
	C124.284065,27.376139 124.202232,27.329163 124.068390,27.150482 
	C124.016365,27.018778 124.000000,27.000063 124.009407,27.008131 
z"/>
</svg>